<?xml version="1.0" encoding="UTF-8"?>
<svg id="Layer_1" preserveAspectRatio="xMidYMid meet" data-name="Layer 1" xmlns="http://www.w3.org/2000/svg" version="1.1" viewBox="0 0 731 495">
  <defs>
    <style>
      .cls-1 {
        fill: #f0e900;
        stroke-width: 0px;
      }
    </style>
  </defs>
  <g>
    <path class="cls-1" d="M542.9,252.5c6.5,0,11.7-5.4,11.7-12s-5.3-12-11.7-12-2.2.2-3.3.5h0c-1.7.4-3.5,1.1-5.3,1.8-5.9,2.4-10.8,5.5-14.6,8.4-.4.3-.6.8-.6,1.2,0,.5.2.9.6,1.2,3.8,3,8.6,6,14.6,8.4,1.8.7,3.6,1.4,5.3,1.9h0c1,.2,2.1.5,3.3.5Z"/>
    <path class="cls-1" d="M188.4,252.5c-6.5,0-11.7-5.4-11.7-12,0-6.6,5.3-12,11.7-12s2.2.2,3.3.5h0c1.7.4,3.5,1.1,5.3,1.8,5.9,2.4,10.8,5.5,14.6,8.4.4.3.6.8.6,1.2,0,.5-.2.9-.6,1.2-3.8,3-8.6,6-14.6,8.4-1.8.7-3.6,1.4-5.3,1.9h0c-1,.2-2.1.5-3.3.5Z"/>
  </g>
  <g>
    <path class="cls-1" d="M353.7,417.8c0,6.5,5.4,11.7,12,11.7s12-5.3,12-11.7-.2-2.2-.5-3.3h0c-.5-1.7-1.1-3.4-1.9-5.3-2.4-5.9-5.5-10.8-8.4-14.6-.3-.4-.8-.6-1.2-.6-.5,0-.9.2-1.2.6-3,3.8-6,8.6-8.4,14.6-.7,1.8-1.4,3.6-1.9,5.3h0c-.3,1-.5,2.1-.5,3.2Z"/>
    <path class="cls-1" d="M353.7,63.3c0-6.5,5.4-11.7,12-11.7s12,5.3,12,11.7-.2,2.2-.5,3.3h0c-.5,1.7-1.1,3.4-1.9,5.3-2.4,5.9-5.5,10.8-8.4,14.6-.3.4-.8.6-1.2.6-.5,0-.9-.2-1.2-.6-3-3.8-6-8.6-8.4-14.6-.7-1.8-1.4-3.6-1.9-5.3h0c-.3-1-.5-2.1-.5-3.2Z"/>
  </g>
</svg>