<?xml version="1.0" encoding="UTF-8"?>
<svg id="Layer_2" data-name="Layer 2" xmlns="http://www.w3.org/2000/svg" viewBox="0 0 187.32 187.32">
  <defs>
    <style>
      .cls-1 {
        fill: #fff;
      }

      .cls-1, .cls-2 {
        stroke-width: 0px;
      }

      .cls-2 {
        fill: #000;
        opacity: .3;
      }
    </style>
  </defs>
  <g id="Layer_1-2" data-name="Layer 1">
    <g>
      <circle class="cls-2" cx="93.66" cy="93.66" r="93.66" transform="translate(-20.902 160.143) rotate(-75.128)"/>
      <path class="cls-1" d="M138.52,60.02c0,5.29-10.55,11.21-24.67,11.21s-24.68-5.92-24.68-11.21,10.55-11.22,24.68-11.22,24.67,5.93,24.67,11.22Z"/>
      <path class="cls-1" d="M138.52,73.85v4.12c0,5.29-10.55,11.21-24.67,11.21-2.43,0-4.79-.23-7.08-.57-.89-3.98-3.63-7.56-7.72-10.41,4.45,1.27,9.44,2.01,14.8,2.01,9.85,0,18.57-2.44,24.67-6.36Z"/>
      <path class="cls-1" d="M138.52,91.79v4.12c0,5.29-10.55,11.21-24.67,11.21-2.31,0-4.54-.21-6.73-.52v-8.88c2.2.26,4.44.43,6.73.43,9.85,0,18.57-2.44,24.67-6.36Z"/>
      <path class="cls-1" d="M138.52,109.73v4.12c0,5.29-10.55,11.21-24.67,11.21-2.31,0-4.54-.21-6.73-.52v-8.88c2.2.26,4.44.43,6.73.43,9.85,0,18.57-2.43,24.67-6.36Z"/>
      <path class="cls-1" d="M98.15,123.19v4.12c0,5.29-10.56,11.21-24.68,11.21s-24.67-5.92-24.67-11.21v-4.12c6.1,3.93,14.82,6.36,24.67,6.36s18.57-2.43,24.68-6.36Z"/>
      <path class="cls-1" d="M98.15,105.25v4.11c0,5.3-10.56,11.22-24.68,11.22s-24.67-5.92-24.67-11.22v-4.11c6.1,3.92,14.82,6.36,24.67,6.36s18.57-2.44,24.68-6.36Z"/>
      <path class="cls-1" d="M98.15,91.42c0,5.29-10.56,11.22-24.68,11.22s-24.67-5.93-24.67-11.22,10.55-11.21,24.67-11.21,24.68,5.92,24.68,11.21Z"/>
    </g>
  </g>
</svg>