<?xml version="1.0" encoding="UTF-8"?>
<svg id="Layer_2" data-name="Layer 2" xmlns="http://www.w3.org/2000/svg" viewBox="0 0 187.32 187.32">
  <defs>
    <style>
      .cls-1 {
        fill: #fff;
      }

      .cls-1, .cls-2 {
        stroke-width: 0px;
      }

      .cls-2 {
        fill: #000;
        opacity: .3;
      }
    </style>
  </defs>
  <g id="Layer_1-2" data-name="Layer 1">
    <g>
      <circle class="cls-2" cx="93.66" cy="93.66" r="93.66" transform="translate(-38.795 93.66) rotate(-45)"/>
      <path class="cls-1" d="M102.488,49.577h-24.601c-.926,0-1.73.635-1.945,1.536l-12.357,51.781c-.3,1.257.653,2.464,1.945,2.464h27.493c1.302,0,2.257,1.224,1.94,2.487l-6.884,27.401c-.55,2.187,2.378,3.47,3.613,1.583l31.769-48.527c.871-1.33-.083-3.095-1.673-3.095h-22.019c-1.274,0-2.223-1.176-1.955-2.421l6.631-30.787c.268-1.246-.681-2.421-1.955-2.421Z"/>
    </g>
  </g>
</svg>