<?xml version="1.0" encoding="UTF-8"?>
<svg id="Layer_2" data-name="Layer 2" xmlns="http://www.w3.org/2000/svg" viewBox="0 0 147.952 147.954">
  <defs>
    <style>
      .cls-1 {
        fill: #fff;
      }

      .cls-1, .cls-2 {
        stroke-width: 0px;
      }

      .cls-2 {
        fill: #000;
        opacity: .3;
      }
    </style>
  </defs>
  <g id="Layer_1-2" data-name="Layer 1">
    <g>
      <path class="cls-2" d="M147.944,20.404c.01,35.7.01,71.4,0,107.1-.01,11.74-8.61,20.41-20.37,20.42-35.75.04-71.51.04-107.26,0C8.574,147.914.014,139.224.004,127.444-.006,109.624.004,91.794.004,73.974S-.006,38.224.004,20.354C.024,9.944,6.854,1.894,17.104.204,18.194.024,19.334.014,20.454.014,56.154.004,91.854-.006,127.554.004c11.73.01,20.38,8.66,20.39,20.4Z"/>
      <path class="cls-1" d="M73.982,92.989c11.737,0,23.475-.006,35.212.005,2.54.002,4.176,1.714,3.776,3.88-.281,1.522-1.411,2.582-2.988,2.76-.482.054-.973.03-1.46.03-23.036.001-46.073.001-69.109,0-2.914,0-4.547-1.226-4.515-3.382.032-2.112,1.627-3.294,4.455-3.294,11.543,0,23.085,0,34.628,0Z"/>
      <path class="cls-1" d="M74.041,48.266c11.445,0,22.891,0,34.336,0,.487,0,.976-.021,1.46.02,1.859.156,3.229,1.597,3.209,3.347-.02,1.698-1.326,3.087-3.124,3.288-.482.054-.973.032-1.46.032-22.988.001-45.976.002-68.964-.002-.583,0-1.177.025-1.748-.072-1.702-.287-2.908-1.749-2.848-3.377.06-1.641,1.346-3.009,3.051-3.202.53-.06,1.07-.034,1.606-.034,11.494-.002,22.988-.001,34.482-.001Z"/>
      <path class="cls-1" d="M73.985,77.259c-11.541,0-23.083,0-34.624-.003-.584,0-1.176.019-1.749-.068-1.526-.23-2.683-1.616-2.711-3.175-.028-1.542,1.102-2.993,2.615-3.253.666-.114,1.358-.097,2.039-.098,22.937-.004,45.873-.004,68.81-.002.584,0,1.172-.011,1.75.054,1.7.192,2.939,1.599,2.924,3.274-.015,1.688-1.266,3.064-2.971,3.231-.531.052-1.07.036-1.605.036-11.493.002-22.985.001-34.478.001Z"/>
    </g>
  </g>
</svg>