<?xml version="1.0" encoding="UTF-8"?>
<svg id="Layer_2" data-name="Layer 2" xmlns="http://www.w3.org/2000/svg" xmlns:xlink="http://www.w3.org/1999/xlink" viewBox="0 0 1066.023 158.295">
  <defs>
    <style>
      .cls-1 {
        fill: url(#linear-gradient);
        stroke-width: 0px;
      }
    </style>
    <linearGradient id="linear-gradient" x1="0" y1="79.148" x2="1066.023" y2="79.148" gradientUnits="userSpaceOnUse">
      <stop offset="0" stop-color="#05c029"/>
      <stop offset="1" stop-color="#05df00"/>
    </linearGradient>
  </defs>
  <g id="Layer_1-2" data-name="Layer 1">
    <path class="cls-1" d="M1035.636,65.938c-55.906-16.048-112.486-29.187-169.545-39.399-.057-.01-.112-.025-.169-.035-.183-.033-.366-.062-.549-.095-5.785-1.033-11.577-2.031-17.372-3.004-.75-.126-1.499-.254-2.249-.379-5.677-.945-11.358-1.857-17.043-2.744-.857-.134-1.715-.269-2.572-.401-5.625-.869-11.255-1.708-16.888-2.519-.9-.13-1.8-.259-2.699-.387-5.626-.802-11.256-1.575-16.89-2.32-.882-.117-1.765-.231-2.647-.347-5.672-.741-11.348-1.456-17.028-2.139-.812-.098-1.624-.192-2.436-.289-5.774-.686-11.551-1.347-17.332-1.974-.659-.071-1.318-.139-1.976-.21-5.947-.638-11.896-1.249-17.85-1.824-.41-.04-.82-.076-1.23-.116-6.214-.596-12.432-1.162-18.654-1.689C486.178-13.064,258.142,13.164,44.076,83.087c-10.511,3.904-22.094,5.875-31.379,12.431-11.806,7.871-17.881,25.749-7.051,36.869,14.452,15.499,36.759,6.178,54,1.081,23.91-6.852,47.936-13.13,72.13-18.84,149.532-35.395,304.205-48.892,457.6-39.98,5.024.29,10.044.61,15.062.947,1.586.107,3.17.223,4.755.335,3.476.244,6.95.497,10.423.764,1.803.139,3.606.282,5.408.426,3.372.271,6.743.554,10.113.847,1.713.149,3.426.295,5.137.449,3.995.36,7.988.738,11.979,1.128,1.017.099,2.036.191,3.052.293,4.992.498,9.981,1.021,14.967,1.567,1.337.146,2.672.303,4.008.453,3.676.412,7.35.832,11.022,1.269,1.757.209,3.513.425,5.269.64,3.332.408,6.662.827,9.99,1.256,1.765.228,3.529.455,5.293.689,3.595.476,7.187.968,10.778,1.469,1.407.196,2.815.385,4.221.586,4.964.706,9.925,1.433,14.882,2.186.826.126,1.651.26,2.477.386,4.137.635,8.272,1.285,12.404,1.954,1.667.27,3.331.548,4.997.823,3.351.553,6.701,1.115,10.048,1.69,1.777.305,3.553.613,5.329.924,3.391.594,6.779,1.202,10.166,1.818,1.602.292,3.205.578,4.805.875,4.522.838,9.041,1.693,13.556,2.571.412.08.825.156,1.237.236,4.917.959,9.828,1.947,14.736,2.953,1.506.309,3.01.628,4.516.941,3.448.717,6.894,1.443,10.337,2.184,1.754.377,3.507.76,5.26,1.143,3.289.719,6.577,1.45,9.862,2.191,54.544,12.293,108.5,27.487,161.7,45.58,23.267,7.796,47.597-7.148,55.99-31.47,8.755-23.414-3.144-52.243-27.52-58.81Z"/>
  </g>
</svg>