<?xml version="1.0" encoding="UTF-8"?>
<svg id="Layer_2" data-name="Layer 2" xmlns="http://www.w3.org/2000/svg" xmlns:xlink="http://www.w3.org/1999/xlink" viewBox="0 0 1149 241">
  <defs>
    <style>
      .cls-1 {
        fill: #000;
        filter: url(#drop-shadow-1);
        opacity: .2;
        stroke-width: 0px;
      }
    </style>
    <filter id="drop-shadow-1" filterUnits="userSpaceOnUse">
      <feOffset dx="0" dy="11"/>
      <feGaussianBlur result="blur" stdDeviation="7"/>
      <feFlood flood-color="#000" flood-opacity=".6"/>
      <feComposite in2="blur" operator="in"/>
      <feComposite in="SourceGraphic"/>
    </filter>
  </defs>
  <g id="Layer_1-2" data-name="Layer 1">
    <path class="cls-1" d="M1061.03,208.458c-6.469,0-12.847-1.061-18.956-3.152-162.177-55.175-331.507-83.157-503.252-83.157-153.285,0-305.535,22.423-452.521,66.647-5.6,1.672-11.31,2.515-17.011,2.515-21.516,0-39.483-11.712-45.773-29.84-3.633-10.469-2.802-22.042,2.342-32.588,6.171-12.653,18.001-22.743,32.457-27.683C235.826,40.795,421.034,10.172,608.82,10.172c160.138,0,319.521,22.441,473.72,66.7,16.186,4.603,29.484,15.528,37.4,30.75,8.463,16.271,9.736,35.902,3.493,53.859-9.767,28.098-34.845,46.977-62.403,46.977Z"/>
  </g>
</svg>