<?xml version="1.0" encoding="UTF-8"?>
<svg id="Layer_2" data-name="Layer 2" xmlns="http://www.w3.org/2000/svg" xmlns:xlink="http://www.w3.org/1999/xlink" viewBox="0 0 174 177">
  <defs>
    <style>
      .cls-1 {
        fill: #ff0;
        filter: url(#outer-glow-1);
      }

      .cls-1, .cls-2 {
        stroke-width: 0px;
      }

      .cls-2 {
        fill: #ddd;
        opacity: .3;
      }
    </style>
    <filter id="outer-glow-1" filterUnits="userSpaceOnUse">
      <feOffset dx="0" dy="0"/>
      <feGaussianBlur result="blur" stdDeviation="20"/>
      <feFlood flood-color="#fff" flood-opacity="1"/>
      <feComposite in2="blur" operator="in"/>
      <feComposite in="SourceGraphic"/>
    </filter>
  </defs>
  <g id="Layer_1-2" data-name="Layer 1">
    <g>
      <path class="cls-2" d="M111.775,91.135l-13.355,4.73c-1.294.458-2.146,1.698-2.11,3.071l.371,14.163c.08,3.069-3.813,4.448-5.683,2.013l-8.625-11.239c-.836-1.089-2.278-1.516-3.572-1.058l-13.355,4.73c-2.894,1.025-5.409-2.252-3.67-4.782l8.024-11.676c.778-1.132.738-2.635-.098-3.724l-8.625-11.239c-1.869-2.436.471-5.84,3.414-4.968l13.584,4.023c1.316.39,2.734-.112,3.512-1.244l8.024-11.676c1.739-2.53,5.7-1.357,5.78,1.712l.371,14.163c.036,1.373.952,2.566,2.268,2.956l13.584,4.023c2.944.872,3.052,5.001.158,6.026Z"/>
      <path class="cls-1" d="M111.775,91.135l-13.355,4.73c-1.294.458-2.146,1.698-2.11,3.071l.371,14.163c.08,3.069-3.813,4.448-5.683,2.013l-8.625-11.239c-.836-1.089-2.278-1.516-3.572-1.058l-13.355,4.73c-2.894,1.025-5.409-2.252-3.67-4.783l8.024-11.676c.778-1.132.738-2.635-.098-3.724l-8.625-11.239c-1.869-2.436.471-5.84,3.414-4.968l13.584,4.023c1.317.39,2.734-.112,3.512-1.244l8.024-11.676c1.739-2.53,5.7-1.357,5.78,1.712l.371,14.163c.036,1.373.952,2.566,2.268,2.956l13.584,4.023c2.944.872,3.052,5.001.158,6.026Z"/>
    </g>
  </g>
</svg>